<svg width="21" height="14" viewBox="0 0 21 14" fill="none" xmlns="http://www.w3.org/2000/svg">
<g clip-path="url(#clip0_23_30)">
<path d="M0.582968 7.44245L6.84393 13.6624C6.87127 13.6897 6.90316 13.7148 6.93962 13.7376C6.97607 13.7604 7.01252 13.7809 7.04898 13.7991C7.08543 13.8173 7.12416 13.831 7.16518 13.8401C7.20619 13.8492 7.24492 13.8538 7.28137 13.8538C7.32694 13.8538 7.37023 13.8492 7.41124 13.8401C7.45225 13.831 7.49098 13.8173 7.52744 13.7991C7.56389 13.7809 7.59807 13.7604 7.62996 13.7376C7.66186 13.7148 7.69604 13.6897 7.73249 13.6624C7.75983 13.6351 7.78489 13.6054 7.80768 13.5735C7.83046 13.5416 7.84641 13.5075 7.85552 13.471C7.87375 13.4254 7.88742 13.3844 7.89653 13.348C7.90564 13.3115 7.9102 13.2705 7.9102 13.2249C7.9102 13.1885 7.90564 13.1498 7.89653 13.1088C7.88742 13.0677 7.87375 13.029 7.85552 12.9926C7.84641 12.9561 7.83046 12.9196 7.80768 12.8832C7.78489 12.8467 7.75983 12.8148 7.73249 12.7875L2.53781 7.62016H20.0083C20.0904 7.62016 20.1701 7.60421 20.2476 7.57232C20.325 7.54042 20.3911 7.49713 20.4458 7.44245C20.5096 7.37865 20.5574 7.3103 20.5893 7.2374C20.6212 7.16449 20.6372 7.08702 20.6372 7.005C20.6372 6.92298 20.6212 6.84324 20.5893 6.76577C20.5574 6.68831 20.5096 6.61768 20.4458 6.55388C20.3911 6.4992 20.325 6.45591 20.2476 6.42402C20.1701 6.39212 20.0904 6.37617 20.0083 6.37617H2.55148L7.73249 1.2225C7.79628 1.16782 7.84413 1.10175 7.87603 1.02428C7.90792 0.946819 7.92387 0.867076 7.92387 0.785055C7.92387 0.703033 7.90792 0.623291 7.87603 0.545826C7.84413 0.468362 7.79628 0.402288 7.73249 0.347608C7.67781 0.283813 7.61174 0.235968 7.53427 0.204071C7.45681 0.172174 7.37706 0.156225 7.29504 0.156225C7.21302 0.156225 7.13328 0.172174 7.05581 0.204071C6.97835 0.235968 6.90772 0.283813 6.84393 0.347608L0.596638 6.56755C0.541957 6.62224 0.498668 6.68831 0.466771 6.76577C0.434874 6.84324 0.414369 6.92298 0.405255 7.005C0.405255 7.08702 0.421204 7.16677 0.453101 7.24423C0.484998 7.32169 0.528287 7.38777 0.582968 7.44245ZM7.29504 0.0058527C7.18568 0.0058527 7.08315 0.0263577 6.98746 0.0673685C6.89177 0.108379 6.80747 0.165339 6.73456 0.238246L0.487276 6.45819C0.414369 6.5311 0.357409 6.61312 0.316399 6.70426C0.275388 6.79539 0.254883 6.89564 0.254883 7.005C0.254883 7.10525 0.27311 7.20322 0.309564 7.29891C0.346018 7.3946 0.400698 7.4789 0.473606 7.55181L6.73456 13.7718C6.77102 13.8082 6.80975 13.8424 6.85076 13.8743C6.89177 13.9062 6.93506 13.9312 6.98063 13.9495C7.03531 13.9677 7.08771 13.9814 7.13784 13.9905C7.18796 13.9996 7.2358 14.0042 7.28137 14.0042C7.33605 14.0042 7.38846 13.9996 7.43858 13.9905C7.4887 13.9814 7.53655 13.9677 7.58212 13.9495C7.62768 13.9312 7.67325 13.9062 7.71882 13.8743C7.76439 13.8424 7.8054 13.8082 7.84185 13.7718C7.8783 13.7353 7.9102 13.6966 7.93754 13.6556C7.96488 13.6145 7.98767 13.5713 8.00589 13.5257C8.02412 13.4801 8.03779 13.4323 8.0469 13.3822C8.05602 13.332 8.06057 13.2796 8.06057 13.2249C8.06057 13.1794 8.05602 13.1315 8.0469 13.0814C8.03779 13.0313 8.02412 12.9789 8.00589 12.9242C7.98767 12.8786 7.96488 12.8353 7.93754 12.7943C7.9102 12.7533 7.8783 12.7146 7.84185 12.6781L2.9069 7.77053H20.0083C20.1086 7.77053 20.2066 7.75231 20.3022 7.71585C20.3979 7.6794 20.4822 7.62472 20.5551 7.55181C20.6281 7.4789 20.685 7.3946 20.726 7.29891C20.767 7.20322 20.7875 7.10525 20.7875 7.005C20.7875 6.89564 20.767 6.79311 20.726 6.69742C20.685 6.60173 20.6281 6.51743 20.5551 6.44452C20.4822 6.37161 20.3979 6.31693 20.3022 6.28048C20.2066 6.24403 20.1086 6.2258 20.0083 6.2258H2.93424L7.84185 1.33186C7.91476 1.25896 7.97172 1.17466 8.01273 1.07896C8.05374 0.983273 8.07424 0.885303 8.07424 0.785055C8.07424 0.684807 8.05374 0.586837 8.01273 0.491145C7.97172 0.395453 7.91476 0.311154 7.84185 0.238246C7.76894 0.165339 7.68464 0.108379 7.58895 0.0673685C7.49326 0.0263577 7.39529 0.0058527 7.29504 0.0058527ZM7.29504 0.320268C7.35884 0.320268 7.41807 0.331659 7.47275 0.354444C7.52744 0.377227 7.57756 0.411403 7.62313 0.456969C7.66869 0.502537 7.70287 0.552661 7.72565 0.607342C7.74844 0.662023 7.75983 0.72126 7.75983 0.785055C7.75983 0.848849 7.74844 0.908087 7.72565 0.962768C7.70287 1.01745 7.66869 1.06757 7.62313 1.11314L2.18238 6.54021H20.0083C20.0721 6.54021 20.1314 6.55161 20.1861 6.57439C20.2407 6.59717 20.2909 6.63135 20.3364 6.67692C20.382 6.71337 20.4162 6.76122 20.439 6.82045C20.4617 6.87969 20.4731 6.94121 20.4731 7.005C20.4731 7.05968 20.4617 7.11664 20.439 7.17588C20.4162 7.23512 20.382 7.28752 20.3364 7.33309C20.2909 7.37865 20.2407 7.41283 20.1861 7.43561C20.1314 7.4584 20.0721 7.46979 20.0083 7.46979H2.15504L7.62313 12.8969C7.64135 12.9151 7.65958 12.9379 7.67781 12.9652C7.69604 12.9926 7.70971 13.0199 7.71882 13.0472C7.72793 13.0746 7.73705 13.1042 7.74616 13.1361C7.75527 13.168 7.75983 13.1976 7.75983 13.2249C7.75983 13.2523 7.75527 13.2819 7.74616 13.3138C7.73705 13.3457 7.72793 13.3753 7.71882 13.4027C7.70971 13.43 7.69604 13.4573 7.67781 13.4847C7.65958 13.512 7.64135 13.5348 7.62313 13.553C7.59579 13.5804 7.56845 13.6009 7.54111 13.6145C7.51377 13.6282 7.48643 13.6442 7.45908 13.6624C7.43174 13.6715 7.4044 13.6783 7.37706 13.6829C7.34972 13.6875 7.31783 13.6897 7.28137 13.6897C7.25403 13.6897 7.22441 13.6875 7.19252 13.6829C7.16062 13.6783 7.131 13.6715 7.10366 13.6624C7.07632 13.6442 7.04898 13.6282 7.02164 13.6145C6.9943 13.6009 6.97151 13.5804 6.95329 13.553L0.706 7.33309C0.660432 7.28752 0.626257 7.2374 0.603473 7.18271C0.58069 7.12803 0.569298 7.0688 0.569298 7.005C0.569298 6.94121 0.58069 6.88197 0.603473 6.82729C0.626257 6.77261 0.660432 6.72248 0.706 6.67692L6.95329 0.456969C6.99885 0.411403 7.05126 0.377227 7.11049 0.354444C7.16973 0.331659 7.23125 0.320268 7.29504 0.320268Z" fill="black"/>
</g>
<defs>
<clipPath id="clip0_23_30">
<rect width="20.56" height="14" fill="white" transform="matrix(1 0 0 -1 0.254883 14.0049)"/>
</clipPath>
</defs>
</svg>
