<svg width="21" height="14" viewBox="0 0 21 14" fill="none" xmlns="http://www.w3.org/2000/svg">
<g clip-path="url(#clip0_23_43)">
<path d="M20.2192 6.55388L13.9583 0.197236C13.9309 0.160782 13.899 0.131163 13.8626 0.108379C13.8261 0.0855951 13.7897 0.0696468 13.7532 0.0605335C13.7168 0.0423069 13.678 0.028636 13.637 0.0195227C13.596 0.0104094 13.5573 0.0058527 13.5208 0.0058527C13.4753 0.0058527 13.432 0.0104094 13.391 0.0195227C13.35 0.028636 13.3112 0.0423069 13.2748 0.0605335C13.2383 0.0696468 13.2041 0.0855951 13.1722 0.108379C13.1403 0.131163 13.1062 0.160782 13.0697 0.197236C13.0424 0.224576 13.0173 0.254195 12.9945 0.286092C12.9718 0.317989 12.9558 0.356722 12.9467 0.402288C12.9285 0.438743 12.9148 0.477475 12.9057 0.518486C12.8966 0.559496 12.892 0.602785 12.892 0.648353C12.892 0.684807 12.8966 0.723538 12.9057 0.764549C12.9148 0.80556 12.9285 0.844293 12.9467 0.880746C12.9558 0.926313 12.9718 0.965046 12.9945 0.996943C13.0173 1.02884 13.0424 1.05846 13.0697 1.0858L18.2644 6.37617H0.793869C0.711848 6.37617 0.632105 6.39212 0.55464 6.42402C0.477176 6.45591 0.411103 6.4992 0.356422 6.55388C0.292628 6.61768 0.244782 6.68831 0.212885 6.76577C0.180988 6.84324 0.165039 6.92298 0.165039 7.005C0.165039 7.09614 0.180988 7.18044 0.212885 7.2579C0.244782 7.33536 0.292628 7.40144 0.356422 7.45612C0.411103 7.51991 0.477176 7.56776 0.55464 7.59966C0.632105 7.63155 0.711848 7.6475 0.793869 7.6475H18.2507L13.0697 12.9242C13.0059 12.9789 12.9581 13.045 12.9262 13.1224C12.8943 13.1999 12.8783 13.2796 12.8783 13.3617C12.8783 13.4528 12.8943 13.5371 12.9262 13.6145C12.9581 13.692 13.0059 13.7581 13.0697 13.8128C13.1244 13.8766 13.1905 13.9244 13.2679 13.9563C13.3454 13.9882 13.4251 14.0042 13.5072 14.0042C13.5892 14.0042 13.6689 13.9882 13.7464 13.9563C13.8239 13.9244 13.8945 13.8766 13.9583 13.8128L20.2056 7.45612C20.2603 7.39232 20.3035 7.32169 20.3354 7.24423C20.3673 7.16677 20.3878 7.08702 20.397 7.005C20.397 6.92298 20.381 6.84324 20.3491 6.76577C20.3172 6.68831 20.2739 6.61768 20.2192 6.55388Z" fill="black"/>
</g>
<defs>
<clipPath id="clip0_23_43">
<rect width="20.56" height="14" fill="white" transform="matrix(1 0 0 -1 0.165039 14.0049)"/>
</clipPath>
</defs>
</svg>
