<svg width="28" height="51" viewBox="0 0 28 51" fill="none" xmlns="http://www.w3.org/2000/svg">
<g clip-path="url(#clip0_443_211)">
<path d="M14.902 49.7453L27.6153 34.2148C27.6882 34.1469 27.7474 34.0678 27.793 33.9774C27.8386 33.887 27.8705 33.7965 27.8887 33.7061C27.9252 33.6157 27.9525 33.5196 27.9707 33.4179C27.9889 33.3162 27.9981 33.2201 27.9981 33.1297C27.9981 33.0166 27.9889 32.9092 27.9707 32.8075C27.9525 32.7058 27.9252 32.6097 27.8887 32.5193C27.8705 32.4289 27.8386 32.3441 27.793 32.265C27.7474 32.1858 27.6882 32.1011 27.6153 32.0106C27.5606 31.9428 27.5014 31.8807 27.4376 31.8241C27.3738 31.7676 27.2963 31.7281 27.2052 31.7055C27.1323 31.6602 27.0548 31.6263 26.9728 31.6037C26.8908 31.5811 26.8042 31.5698 26.7131 31.5698C26.6402 31.5698 26.5627 31.5811 26.4807 31.6037C26.3986 31.6263 26.3212 31.6602 26.2483 31.7055C26.1571 31.7281 26.0797 31.7676 26.0159 31.8241C25.9521 31.8807 25.8928 31.9428 25.8382 32.0106L15.2574 44.8963L15.2574 1.55984C15.2574 1.35638 15.2255 1.15858 15.1617 0.966423C15.0979 0.774269 15.0114 0.610372 14.902 0.474734C14.7744 0.316489 14.6331 0.197806 14.4782 0.118684C14.3233 0.0395612 14.1638 0 13.9998 0C13.8175 0 13.6489 0.0395612 13.494 0.118684C13.339 0.197806 13.2069 0.316489 13.0975 0.474734C12.9699 0.610372 12.8742 0.774269 12.8105 0.966423C12.7467 1.15858 12.7148 1.35638 12.7148 1.55984L12.7148 44.8624L2.16136 32.0106C2.052 31.8524 1.91985 31.7337 1.76492 31.6546C1.60999 31.5755 1.45051 31.5359 1.28646 31.5359C1.1042 31.5359 0.935596 31.5755 0.780667 31.6546C0.625738 31.7337 0.493593 31.8524 0.384231 32.0106C0.256642 32.1463 0.160951 32.3102 0.0971563 32.5023C0.033362 32.6945 0.00146484 32.8923 0.00146484 33.0957C0.00146484 33.2992 0.033362 33.497 0.0971563 33.6892C0.160951 33.8813 0.256642 34.0565 0.384231 34.2148L13.0975 49.7114C13.2251 49.8471 13.3664 49.9545 13.5213 50.0336C13.6762 50.1127 13.8357 50.1636 13.9998 50.1862C14.1638 50.1862 14.3233 50.1466 14.4782 50.0675C14.6331 49.9884 14.7744 49.881 14.902 49.7453Z" fill="#918E93"/>
</g>
<defs>
<clipPath id="clip0_443_211">
<rect width="51" height="28" fill="white" transform="matrix(0 1 1 0 0 0)"/>
</clipPath>
</defs>
</svg>
