<svg width="36" height="36" viewBox="0 0 36 36" fill="none" xmlns="http://www.w3.org/2000/svg">
<g clip-path="url(#clip0_15_105)">
<path d="M17.2969 0C15.2578 0 13.459 0.0117188 11.9004 0.0351562C10.3418 0.0585938 8.97656 0.152344 7.80469 0.316406C6.63281 0.480469 5.61914 0.732422 4.76367 1.07227C3.9082 1.41211 3.16406 1.89844 2.53125 2.53125C1.89844 3.16406 1.41211 3.9082 1.07227 4.76367C0.732422 5.61914 0.480469 6.63281 0.316406 7.80469C0.152344 8.97656 0.0585938 10.3418 0.0351562 11.9004C0.0117188 13.459 0 15.2578 0 17.2969V18.7031C0 20.7656 0.0117188 22.5703 0.0351562 24.1172C0.0585938 25.6641 0.152344 27.0234 0.316406 28.1953C0.480469 29.3672 0.732422 30.3809 1.07227 31.2363C1.41211 32.0918 1.89844 32.8359 2.53125 33.4688C3.16406 34.1016 3.9082 34.5879 4.76367 34.9277C5.61914 35.2676 6.63281 35.5195 7.80469 35.6836C8.97656 35.8477 10.3418 35.9414 11.9004 35.9648C13.459 35.9883 15.2578 36 17.2969 36H18.7031C20.7656 36 22.5703 35.9883 24.1172 35.9648C25.6641 35.9414 27.0234 35.8477 28.1953 35.6836C29.3672 35.5195 30.3809 35.2676 31.2363 34.9277C32.0918 34.5879 32.8359 34.1016 33.4688 33.4688C34.1016 32.8359 34.5879 32.0918 34.9277 31.2363C35.2676 30.3809 35.5195 29.3672 35.6836 28.1953C35.8477 27.0234 35.9414 25.6641 35.9648 24.1172C35.9883 22.5703 36 20.7773 36 18.7383V17.2969C36 15.2578 35.9883 13.459 35.9648 11.9004C35.9414 10.3418 35.8477 8.97656 35.6836 7.80469C35.5195 6.63281 35.2676 5.61914 34.9277 4.76367C34.5879 3.9082 34.1016 3.16406 33.4688 2.53125C32.8359 1.89844 32.0918 1.41211 31.2363 1.07227C30.3809 0.732422 29.3672 0.480469 28.1953 0.316406C27.0234 0.152344 25.6641 0.0585938 24.1172 0.0351562C22.5703 0.0117188 20.7773 0 18.7383 0H17.2969ZM17.2969 0.457031H18.7031C20.7656 0.457031 22.5645 0.46875 24.0996 0.492188C25.6348 0.515625 26.9766 0.609375 28.125 0.773438C29.2969 0.914062 30.2812 1.14844 31.0781 1.47656C31.875 1.80469 32.5664 2.26172 33.1523 2.84766C33.7383 3.43359 34.1953 4.125 34.5234 4.92188C34.8516 5.71875 35.0859 6.70312 35.2266 7.875C35.3906 9.02344 35.4844 10.3711 35.5078 11.918C35.5312 13.4648 35.543 15.2578 35.543 17.2969V18.7031C35.543 20.7656 35.5312 22.5645 35.5078 24.0996C35.4844 25.6348 35.3906 26.9766 35.2266 28.125C35.0859 29.2969 34.8516 30.2812 34.5234 31.0781C34.1953 31.875 33.7383 32.5664 33.1523 33.1523C32.5664 33.7383 31.875 34.1953 31.0781 34.5234C30.2812 34.8516 29.2969 35.0859 28.125 35.2266C26.9766 35.3906 25.6348 35.4844 24.0996 35.5078C22.5645 35.5312 20.7773 35.543 18.7383 35.543H17.2969C15.2578 35.543 13.4648 35.5312 11.918 35.5078C10.3711 35.4844 9.02344 35.3906 7.875 35.2266C6.70312 35.0859 5.71875 34.8516 4.92188 34.5234C4.125 34.1953 3.43359 33.7383 2.84766 33.1523C2.26172 32.5664 1.80469 31.875 1.47656 31.0781C1.14844 30.2812 0.914062 29.2969 0.773438 28.125C0.609375 26.9766 0.515625 25.6348 0.492188 24.0996C0.46875 22.5645 0.457031 20.7656 0.457031 18.7031V17.2969C0.457031 15.2578 0.46875 13.4648 0.492188 11.918C0.515625 10.3711 0.609375 9.02344 0.773438 7.875C0.914062 6.70312 1.14844 5.71875 1.47656 4.92188C1.80469 4.125 2.26172 3.43359 2.84766 2.84766C3.43359 2.26172 4.125 1.80469 4.92188 1.47656C5.71875 1.14844 6.70312 0.914062 7.875 0.773438C9.02344 0.609375 10.3711 0.515625 11.918 0.492188C13.4648 0.46875 15.2578 0.457031 17.2969 0.457031ZM25.3477 10.8281C25.0195 10.8281 24.4453 10.9746 23.625 11.2676C22.8047 11.5605 21.1406 12.2344 18.6328 13.2891C18.1875 13.4766 17.6367 13.7109 16.9805 13.9922C16.3242 14.2734 15.5625 14.6016 14.6953 14.9766C13.8281 15.3516 12.8438 15.7734 11.7422 16.2422C10.6641 16.7109 9.46875 17.2383 8.15625 17.8242C7.73438 17.9883 7.41211 18.1523 7.18945 18.3164C6.9668 18.4805 6.84375 18.6445 6.82031 18.8086C6.77344 19.1367 6.94336 19.3711 7.33008 19.5117C7.7168 19.6523 8.19141 19.8164 8.75391 20.0039C9.22266 20.1445 9.72656 20.2852 10.2656 20.4258C10.8047 20.5664 11.2383 20.6484 11.5664 20.6719C11.8477 20.6719 12.1523 20.6133 12.4805 20.4961C12.8086 20.3789 13.1484 20.1914 13.5 19.9336C15.9609 18.293 17.8242 17.0508 19.0898 16.207C20.3555 15.3633 21.0234 14.9297 21.0938 14.9062C21.1641 14.9062 21.2285 14.9004 21.2871 14.8887C21.3457 14.877 21.4102 14.8945 21.4805 14.9414C21.5273 14.9883 21.5566 15.0469 21.5684 15.1172C21.5801 15.1875 21.5742 15.2344 21.5508 15.2578C21.5273 15.3516 21.2695 15.6445 20.7773 16.1367C20.2852 16.6289 19.7402 17.1562 19.1426 17.7188C18.5449 18.2812 17.9883 18.8086 17.4727 19.3008C16.957 19.7695 16.6641 20.0391 16.5938 20.1094C16.0781 20.625 15.6621 21.082 15.3457 21.4805C15.0293 21.8789 15.3164 22.3711 16.207 22.957C16.9805 23.4727 17.6426 23.9238 18.1934 24.3105C18.7441 24.6973 19.418 25.1484 20.2148 25.6641C20.7305 25.9922 21.2051 26.3086 21.6387 26.6133C22.0723 26.918 22.5469 27.0586 23.0625 27.0352C23.3203 27.0117 23.5605 26.8652 23.7832 26.5957C24.0059 26.3262 24.1758 25.8516 24.293 25.1719C24.457 24.375 24.6445 23.3906 24.8555 22.2188C25.043 21.0234 25.2363 19.8105 25.4355 18.5801C25.6348 17.3496 25.8164 16.1602 25.9805 15.0117C26.1445 13.8633 26.2617 12.9375 26.332 12.2344C26.3555 12.1172 26.3613 11.9883 26.3496 11.8477C26.3379 11.707 26.3203 11.6016 26.2969 11.5312C26.2969 11.4609 26.2793 11.3789 26.2441 11.2852C26.209 11.1914 26.1445 11.1094 26.0508 11.0391C25.9336 10.9453 25.8047 10.8867 25.6641 10.8633C25.5234 10.8398 25.418 10.8281 25.3477 10.8281Z" fill="white"/>
</g>
<defs>
<clipPath id="clip0_15_105">
<rect width="36" height="36" fill="white" transform="matrix(1 0 0 -1 0 36)"/>
</clipPath>
</defs>
</svg>
