<svg width="21" height="21" viewBox="0 0 21 21" fill="none" xmlns="http://www.w3.org/2000/svg">
<path d="M8.94504 16.4375C8.21587 16.4375 7.49973 16.3333 6.7966 16.125C6.09348 15.9167 5.44244 15.6042 4.84348 15.1875C4.2315 14.7839 3.69113 14.2988 3.22238 13.7324C2.75363 13.166 2.38254 12.5443 2.1091 11.8672C1.82265 11.1901 1.64361 10.487 1.57199 9.75781C1.50038 9.02865 1.53619 8.30599 1.67942 7.58984C1.82265 6.8737 2.06679 6.19336 2.41184 5.54883C2.75689 4.9043 3.18983 4.32162 3.71067 3.80078C4.2315 3.27995 4.81418 2.84701 5.45871 2.50195C6.10324 2.1569 6.78358 1.91276 7.49973 1.76953C8.21587 1.6263 8.93853 1.59049 9.6677 1.66211C10.3969 1.73372 11.1 1.91276 11.7771 2.19922C12.4542 2.47266 13.0759 2.84375 13.6423 3.3125C14.2087 3.78125 14.6937 4.32162 15.0974 4.93359C15.5141 5.53255 15.8266 6.18359 16.0349 6.88672C16.2432 7.58984 16.3474 8.30599 16.3474 9.03516C16.3474 10.0247 16.1618 10.972 15.7907 11.877C15.4197 12.7819 14.8825 13.5794 14.1794 14.2695C13.4893 14.9727 12.6918 15.5098 11.7868 15.8809C10.8819 16.252 9.93462 16.4375 8.94504 16.4375ZM20.2536 19.543L15.3708 14.6602C15.7354 14.2435 16.0544 13.8008 16.3279 13.332C16.6013 12.8503 16.8292 12.3522 17.0114 11.8379C17.1937 11.3236 17.3239 10.7995 17.4021 10.2656C17.4802 9.71875 17.5062 9.16536 17.4802 8.60547C17.4411 8.05859 17.3565 7.51823 17.2263 6.98438C17.0961 6.45052 16.917 5.9362 16.6892 5.44141C16.4613 4.94661 16.1846 4.47787 15.8591 4.03516C15.5466 3.59245 15.1885 3.18229 14.7849 2.80469C14.3812 2.42708 13.945 2.09505 13.4763 1.80859C13.0075 1.50912 12.5193 1.26172 12.0114 1.06641C11.5036 0.871094 10.9828 0.727865 10.4489 0.636719C9.90207 0.532553 9.3552 0.486979 8.80832 0.5C8.24843 0.513021 7.70155 0.578125 7.1677 0.695312C6.63384 0.799479 6.11627 0.958984 5.61496 1.17383C5.11366 1.38867 4.63515 1.65234 4.17942 1.96484C3.72369 2.26432 3.30051 2.60938 2.90988 3C2.51926 3.39062 2.1677 3.8138 1.8552 4.26953C1.55572 4.72526 1.29856 5.20378 1.08371 5.70508C0.868869 6.20638 0.709364 6.72396 0.605197 7.25781C0.48801 7.79167 0.422906 8.33854 0.409885 8.89844C0.396864 9.44531 0.442437 9.99219 0.546604 10.5391C0.63775 11.0729 0.780979 11.5938 0.976291 12.1016C1.1716 12.6094 1.419 13.0977 1.71848 13.5664C2.00494 14.0352 2.33697 14.4714 2.71457 14.875C3.09218 15.2786 3.50233 15.6367 3.94504 15.9492C4.38775 16.2747 4.8565 16.5514 5.35129 16.7793C5.84608 17.0072 6.36041 17.1862 6.89426 17.3164C7.42811 17.4596 7.96848 17.5443 8.51535 17.5703C9.07525 17.5964 9.62212 17.5703 10.156 17.4922C10.7029 17.4141 11.2335 17.2839 11.7478 17.1016C12.2621 16.9193 12.7536 16.6914 13.2224 16.418C13.7042 16.1445 14.1534 15.8255 14.57 15.4609L19.4529 20.3438C19.5049 20.3958 19.5668 20.4349 19.6384 20.4609C19.71 20.487 19.7849 20.5 19.863 20.5C19.9281 20.5 19.9965 20.4837 20.0681 20.4512C20.1397 20.4186 20.195 20.3763 20.2341 20.3242C20.2862 20.2721 20.3285 20.2135 20.3611 20.1484C20.3936 20.0833 20.4099 20.0117 20.4099 19.9336C20.4099 19.8685 20.3969 19.8001 20.3708 19.7285C20.3448 19.6569 20.3057 19.5951 20.2536 19.543Z" fill="black"/>
</svg>
