<svg width="17" height="21" viewBox="0 0 17 21" fill="none" xmlns="http://www.w3.org/2000/svg">
<path d="M14.6191 15.9492C14.5801 16.418 14.4564 16.8607 14.248 17.2773C14.0397 17.694 13.7598 18.0586 13.4082 18.3711C13.0566 18.6966 12.6595 18.944 12.2168 19.1133C11.7741 19.2826 11.3184 19.3672 10.8496 19.3672H5.61523C5.13346 19.3672 4.67122 19.2826 4.22852 19.1133C3.78581 18.944 3.39518 18.6966 3.05664 18.3711C2.70508 18.0586 2.42513 17.694 2.2168 17.2773C2.00846 16.8607 1.88477 16.418 1.8457 15.9492L1.14258 6.78906C1.14258 6.75 1.14583 6.71419 1.15234 6.68164C1.15885 6.64909 1.16862 6.61979 1.18164 6.59375C1.18164 6.55469 1.19141 6.52214 1.21094 6.49609C1.23047 6.47005 1.25326 6.44401 1.2793 6.41797C1.30534 6.39193 1.33138 6.36914 1.35742 6.34961C1.38346 6.33008 1.41602 6.30729 1.45508 6.28125C1.48112 6.26823 1.51042 6.25846 1.54297 6.25195C1.57552 6.24544 1.61133 6.24219 1.65039 6.24219H3.93555V8.35156C3.93555 8.42969 3.94857 8.5013 3.97461 8.56641C4.00065 8.63151 4.03971 8.6901 4.0918 8.74219C4.1569 8.79427 4.22526 8.83659 4.29688 8.86914C4.36849 8.90169 4.43685 8.91797 4.50195 8.91797C4.58008 8.91797 4.65495 8.90169 4.72656 8.86914C4.79818 8.83659 4.86003 8.79427 4.91211 8.74219C4.96419 8.6901 5.00651 8.63151 5.03906 8.56641C5.07161 8.5013 5.08789 8.42969 5.08789 8.35156V6.24219H11.3574V8.35156C11.3574 8.42969 11.3737 8.5013 11.4062 8.56641C11.4388 8.63151 11.4811 8.6901 11.5332 8.74219C11.5853 8.79427 11.6471 8.83659 11.7188 8.86914C11.7904 8.90169 11.8652 8.91797 11.9434 8.91797C12.0085 8.91797 12.0768 8.90169 12.1484 8.86914C12.2201 8.83659 12.2819 8.79427 12.334 8.74219C12.3991 8.6901 12.4447 8.63151 12.4707 8.56641C12.4967 8.5013 12.5098 8.42969 12.5098 8.35156V6.24219H14.7949C14.834 6.24219 14.8698 6.24544 14.9023 6.25195C14.9349 6.25846 14.9642 6.26823 14.9902 6.28125C15.0293 6.30729 15.0618 6.33008 15.0879 6.34961C15.1139 6.36914 15.14 6.39193 15.166 6.41797C15.1921 6.43099 15.2148 6.45378 15.2344 6.48633C15.2539 6.51888 15.2702 6.55469 15.2832 6.59375C15.2962 6.61979 15.3027 6.64909 15.3027 6.68164C15.3027 6.71419 15.3027 6.75 15.3027 6.78906L14.6191 15.9492ZM5.08789 4.69922C5.08789 4.29557 5.16927 3.90495 5.33203 3.52734C5.49479 3.14974 5.7194 2.81771 6.00586 2.53125C6.30534 2.24479 6.64714 2.02344 7.03125 1.86719C7.41536 1.71094 7.81576 1.63281 8.23242 1.63281C8.64909 1.63281 9.04948 1.71094 9.43359 1.86719C9.81771 2.02344 10.1595 2.24479 10.459 2.53125C10.7454 2.81771 10.9701 3.14974 11.1328 3.52734C11.2956 3.90495 11.377 4.29557 11.377 4.69922V5.10938H5.08789V4.69922ZM16.0254 5.63672C15.9473 5.55859 15.8626 5.48698 15.7715 5.42188C15.6803 5.35677 15.5827 5.29818 15.4785 5.24609C15.3613 5.20703 15.2474 5.17448 15.1367 5.14844C15.026 5.1224 14.9186 5.10938 14.8145 5.10938H12.5293V4.69922C12.5293 4.42578 12.5 4.1556 12.4414 3.88867C12.3828 3.62174 12.3014 3.35807 12.1973 3.09766C12.0931 2.83724 11.9629 2.5931 11.8066 2.36523C11.6504 2.13737 11.4681 1.92578 11.2598 1.73047C11.0645 1.53516 10.8496 1.36263 10.6152 1.21289C10.3809 1.06315 10.1335 0.929688 9.87305 0.8125C9.61263 0.708334 9.3457 0.630209 9.07227 0.578125C8.79883 0.526041 8.51888 0.5 8.23242 0.5C7.94596 0.5 7.66602 0.526041 7.39258 0.578125C7.11914 0.630209 6.85221 0.708334 6.5918 0.8125C6.33138 0.929688 6.08398 1.06315 5.84961 1.21289C5.61523 1.36263 5.40039 1.53516 5.20508 1.73047C4.99674 1.92578 4.81445 2.13737 4.6582 2.36523C4.50195 2.5931 4.37174 2.83724 4.26758 3.09766C4.16341 3.35807 4.08203 3.62174 4.02344 3.88867C3.96484 4.1556 3.93555 4.42578 3.93555 4.69922V5.10938H1.66992C1.55273 5.10938 1.4388 5.1224 1.32812 5.14844C1.21745 5.17448 1.11003 5.20703 1.00586 5.24609C0.888672 5.29818 0.784505 5.35677 0.693359 5.42188C0.602214 5.48698 0.517578 5.55859 0.439453 5.63672C0.361328 5.71484 0.292969 5.80273 0.234375 5.90039C0.175781 5.99805 0.126953 6.09896 0.0878906 6.20312C0.0488281 6.32031 0.0227865 6.43425 0.00976562 6.54492C-0.00325521 6.6556 -0.00325521 6.76302 0.00976562 6.86719L0.693359 16.0273C0.745443 16.6393 0.908203 17.2188 1.18164 17.7656C1.45508 18.3125 1.81966 18.7943 2.27539 19.2109C2.7181 19.6276 3.22917 19.9466 3.80859 20.168C4.38802 20.3893 4.99023 20.5 5.61523 20.5H10.8496C11.4746 20.5 12.0768 20.3893 12.6562 20.168C13.2357 19.9466 13.7467 19.6276 14.1895 19.2109C14.6452 18.7943 15.0098 18.3125 15.2832 17.7656C15.5566 17.2188 15.7194 16.6393 15.7715 16.0273L16.4551 6.86719C16.4681 6.76302 16.4681 6.6556 16.4551 6.54492C16.4421 6.43425 16.416 6.32031 16.377 6.20312C16.3379 6.09896 16.2891 5.99805 16.2305 5.90039C16.1719 5.80273 16.1035 5.71484 16.0254 5.63672Z" fill="black"/>
</svg>
