<svg width="22" height="17" viewBox="0 0 22 17" fill="none" xmlns="http://www.w3.org/2000/svg">
<path fill-rule="evenodd" clip-rule="evenodd" d="M11.0166 16.288L10.8021 16.1079C10.7416 16.0584 4.82914 11.1026 3.01664 9.40052C1.50206 7.9775 0.839557 6.30115 1.14997 4.68021C1.47081 3.00386 2.79581 1.59469 4.60622 1.00292C6.82706 0.276565 9.19997 0.935627 11.0146 2.77031C12.8041 0.965315 15.1521 0.320106 17.3604 1.0425C19.1854 1.64021 20.5208 3.05729 20.8458 4.74156C21.1541 6.34667 20.5021 8.00125 19.0125 9.40052C17.2021 11.1026 11.2875 16.0565 11.2291 16.1079L11.0146 16.288H11.0166ZM6.40622 1.49573C5.87289 1.49573 5.33747 1.57886 4.81039 1.75104C3.24997 2.26167 2.11247 3.44719 1.84372 4.8425C1.58539 6.19031 2.14997 7.5599 3.47706 8.80677C5.07706 10.3109 9.93539 14.3979 11.0166 15.3064C12.0979 14.3999 16.9562 10.3109 18.5562 8.80677C19.8583 7.58365 20.4104 6.23584 20.1541 4.90386C19.8896 3.52042 18.7146 2.29927 17.1604 1.79063C15.1 1.11771 12.8958 1.78865 11.2666 3.58573L11.0166 3.86281L10.7666 3.58573C9.53122 2.22209 7.97706 1.49375 6.40622 1.49375V1.49573Z" fill="white" stroke="black" stroke-width="0.833333"/>
</svg>
