<svg width="20" height="21" viewBox="0 0 20 21" fill="none" xmlns="http://www.w3.org/2000/svg">
<path d="M17.9653 18.8203C17.9002 18.8984 17.8285 18.9701 17.7504 19.0352C17.6723 19.1003 17.5942 19.1523 17.516 19.1914C17.4249 19.2435 17.3305 19.2793 17.2328 19.2988C17.1352 19.3184 17.0343 19.3281 16.9301 19.3281H2.63323C2.52906 19.3281 2.42815 19.3184 2.3305 19.2988C2.23284 19.2793 2.14495 19.2435 2.06682 19.1914C1.97568 19.1523 1.89104 19.1003 1.81292 19.0352C1.73479 18.9701 1.66318 18.8984 1.59807 18.8203C1.54599 18.7552 1.50042 18.6803 1.46136 18.5957C1.42229 18.5111 1.38974 18.4232 1.3637 18.332C1.35068 18.2409 1.34417 18.1497 1.34417 18.0586C1.34417 17.9674 1.35068 17.8828 1.3637 17.8047C1.59807 16.8411 1.97893 15.946 2.50628 15.1191C3.03362 14.2923 3.68141 13.5729 4.44964 12.9609C5.20485 12.349 6.04143 11.8835 6.9594 11.5645C7.87737 11.2454 8.81813 11.0859 9.78167 11.0859C10.7452 11.0859 11.686 11.2454 12.6039 11.5645C13.5219 11.8835 14.3585 12.349 15.1137 12.9609C15.8819 13.5729 16.5297 14.2923 17.0571 15.1191C17.5844 15.946 17.9653 16.8411 18.1996 17.8047C18.2127 17.8828 18.2192 17.9674 18.2192 18.0586C18.2192 18.1497 18.2127 18.2409 18.1996 18.332C18.1736 18.4232 18.141 18.5111 18.102 18.5957C18.0629 18.6803 18.0173 18.7552 17.9653 18.8203ZM5.7387 5.79297C5.7387 5.38932 5.79729 4.99219 5.91448 4.60156C6.03167 4.21094 6.20094 3.83984 6.42229 3.48828C6.64365 3.14974 6.90732 2.85352 7.21331 2.59961C7.5193 2.3457 7.8611 2.14062 8.2387 1.98438C8.60328 1.82812 8.98414 1.72721 9.38128 1.68164C9.77841 1.63607 10.1788 1.65885 10.5824 1.75C10.9731 1.82812 11.3442 1.96159 11.6957 2.15039C12.0473 2.33919 12.3663 2.57682 12.6528 2.86328C12.9262 3.16276 13.1573 3.49154 13.3461 3.84961C13.5349 4.20768 13.6684 4.58854 13.7465 4.99219C13.8246 5.38281 13.8442 5.7832 13.8051 6.19336C13.766 6.60352 13.6749 6.9974 13.5317 7.375C13.3754 7.7526 13.1703 8.09766 12.9164 8.41016C12.6625 8.72266 12.3663 8.99609 12.0278 9.23047C11.7022 9.45182 11.3474 9.62109 10.9633 9.73828C10.5792 9.85547 10.1853 9.91406 9.78167 9.91406C9.24781 9.91406 8.73349 9.8099 8.2387 9.60156C7.74391 9.39323 7.30771 9.09375 6.93011 8.70312C6.53948 8.32552 6.24326 7.88281 6.04143 7.375C5.83961 6.86719 5.7387 6.33984 5.7387 5.79297ZM19.2934 17.5117C19.0851 16.6654 18.7726 15.8548 18.3559 15.0801C17.9392 14.3053 17.4379 13.6055 16.852 12.9805C16.253 12.3424 15.5824 11.7956 14.8403 11.3398C14.0981 10.8841 13.3103 10.5391 12.477 10.3047C12.9588 10.0052 13.3819 9.63411 13.7465 9.19141C14.1111 8.7487 14.3976 8.26042 14.6059 7.72656C14.8142 7.19271 14.9314 6.63607 14.9574 6.05664C14.9835 5.47721 14.9249 4.90755 14.7817 4.34766C14.6254 3.80078 14.3878 3.28971 14.0688 2.81445C13.7498 2.33919 13.3624 1.92578 12.9067 1.57422C12.464 1.22266 11.9724 0.955729 11.4321 0.773438C10.8917 0.591146 10.3416 0.5 9.78167 0.5C9.22177 0.5 8.67164 0.591146 8.13128 0.773438C7.59091 0.955729 7.09938 1.22266 6.65667 1.57422C6.20094 1.92578 5.81357 2.33919 5.49456 2.81445C5.17555 3.28971 4.94443 3.80078 4.8012 4.34766C4.64495 4.90755 4.57985 5.47721 4.60589 6.05664C4.63193 6.63607 4.74912 7.19271 4.95745 7.72656C5.16578 8.26042 5.45224 8.7487 5.81682 9.19141C6.18141 9.63411 6.60459 10.0052 7.08636 10.3047C6.25302 10.5391 5.46526 10.8841 4.72307 11.3398C3.98089 11.7956 3.31031 12.3424 2.71136 12.9805C2.12542 13.6055 1.62412 14.3053 1.20745 15.0801C0.790783 15.8548 0.478283 16.6654 0.26995 17.5117C0.230887 17.694 0.208101 17.873 0.20159 18.0488C0.19508 18.2246 0.211356 18.4036 0.250419 18.5859C0.289481 18.7552 0.348075 18.9212 0.4262 19.084C0.504325 19.2467 0.595471 19.3997 0.699637 19.543C0.816825 19.6862 0.947033 19.8197 1.09026 19.9434C1.23349 20.0671 1.38974 20.168 1.55901 20.2461C1.72828 20.3372 1.90406 20.4023 2.08636 20.4414C2.26865 20.4805 2.45094 20.5 2.63323 20.5H16.9301C17.1124 20.5 17.2947 20.4805 17.477 20.4414C17.6593 20.4023 17.8351 20.3372 18.0043 20.2461C18.1736 20.168 18.3298 20.0671 18.4731 19.9434C18.6163 19.8197 18.7465 19.6862 18.8637 19.543C18.9679 19.3997 19.059 19.2467 19.1371 19.084C19.2153 18.9212 19.2739 18.7552 19.3129 18.5859C19.352 18.4036 19.3683 18.2246 19.3617 18.0488C19.3552 17.873 19.3324 17.694 19.2934 17.5117Z" fill="black"/>
</svg>
